<?xml version="1.0" encoding="UTF-8" standalone="no"?>
<!DOCTYPE svg PUBLIC "-//W3C//DTD SVG 1.1//EN"
 "http://www.w3.org/Graphics/SVG/1.1/DTD/svg11.dtd">
<!-- Generated by graphviz version 2.44.0 (0)
 -->
<!-- Title: transport_mcp Pages: 1 -->
<svg width="1569pt" height="193pt"
 viewBox="0.00 0.00 1569.00 193.50" xmlns="http://www.w3.org/2000/svg" xmlns:xlink="http://www.w3.org/1999/xlink">
<g id="graph0" class="graph" transform="scale(1 1) rotate(0) translate(4 189.5)">
<title>transport_mcp</title>
<polygon fill="white" stroke="transparent" points="-4,4 -4,-189.5 1565,-189.5 1565,4 -4,4"/>
<text text-anchor="middle" x="264.5" y="-171.9" font-family="Helvetica" font-size="12.00" fill="#0f172a">Query the archive (MCP) — client → archive host over SSH&#45;stdio, jumping the edge (ProxyJump)</text>
<g id="clust1" class="cluster">
<title>cluster_home</title>
<path fill="white" stroke="#94a3b8" d="M312,-43.5C312,-43.5 1541,-43.5 1541,-43.5 1547,-43.5 1553,-49.5 1553,-55.5 1553,-55.5 1553,-144.5 1553,-144.5 1553,-150.5 1547,-156.5 1541,-156.5 1541,-156.5 312,-156.5 312,-156.5 306,-156.5 300,-150.5 300,-144.5 300,-144.5 300,-55.5 300,-55.5 300,-49.5 306,-43.5 312,-43.5"/>
<text text-anchor="middle" x="351" y="-143.7" font-family="Helvetica" font-size="11.00" fill="#334155">home (always&#45;on)</text>
</g>
<g id="clust2" class="cluster">
<title>cluster_internal</title>
<path fill="white" stroke="#16a34a" stroke-dasharray="5,2" d="M1078,-51.5C1078,-51.5 1533,-51.5 1533,-51.5 1539,-51.5 1545,-57.5 1545,-63.5 1545,-63.5 1545,-116.5 1545,-116.5 1545,-122.5 1539,-128.5 1533,-128.5 1533,-128.5 1078,-128.5 1078,-128.5 1072,-128.5 1066,-122.5 1066,-116.5 1066,-116.5 1066,-63.5 1066,-63.5 1066,-57.5 1072,-51.5 1078,-51.5"/>
<text text-anchor="middle" x="1141.5" y="-116.5" font-family="Helvetica" font-size="10.00" fill="#166534">internal — never internet&#45;facing</text>
</g>
<!-- CLIENT -->
<g id="node1" class="node">
<title>CLIENT</title>
<path fill="#f8fafc" stroke="#475569" d="M162,-106.5C162,-106.5 12,-106.5 12,-106.5 6,-106.5 0,-100.5 0,-94.5 0,-94.5 0,-66.5 0,-66.5 0,-60.5 6,-54.5 12,-54.5 12,-54.5 162,-54.5 162,-54.5 168,-54.5 174,-60.5 174,-66.5 174,-66.5 174,-94.5 174,-94.5 174,-100.5 168,-106.5 162,-106.5"/>
<text text-anchor="middle" x="87" y="-94.5" font-family="Helvetica" font-size="10.00" fill="#0f172a">client</text>
<text text-anchor="middle" x="87" y="-83.5" font-family="Helvetica" font-size="10.00" fill="#0f172a">no local archive (HPC node · laptop)</text>
<text text-anchor="middle" x="87" y="-72.5" font-family="Helvetica" font-size="10.00" fill="#0f172a">registers sjmcp as a stdio server:</text>
<text text-anchor="middle" x="87" y="-61.5" font-family="Helvetica" font-size="10.00" fill="#0f172a">command = ssh &lt;alias&gt;</text>
</g>
<!-- RT -->
<g id="node2" class="node">
<title>RT</title>
<path fill="#f8fafc" stroke="#475569" d="M459,-98.5C459,-98.5 320,-98.5 320,-98.5 314,-98.5 308,-92.5 308,-86.5 308,-86.5 308,-74.5 308,-74.5 308,-68.5 314,-62.5 320,-62.5 320,-62.5 459,-62.5 459,-62.5 465,-62.5 471,-68.5 471,-74.5 471,-74.5 471,-86.5 471,-86.5 471,-92.5 465,-98.5 459,-98.5"/>
<text text-anchor="middle" x="389.5" y="-83.5" font-family="Helvetica" font-size="10.00" fill="#0f172a">home router</text>
<text text-anchor="middle" x="389.5" y="-72.5" font-family="Helvetica" font-size="10.00" fill="#0f172a">forwards ONE public port (DNAT)</text>
</g>
<!-- CLIENT&#45;&gt;RT -->
<g id="edge4" class="edge">
<title>CLIENT&#45;&gt;RT</title>
<path fill="none" stroke="#d97706" stroke-width="1.6" d="M174.11,-80.5C212.8,-80.5 258.48,-80.5 297.7,-80.5"/>
<polygon fill="#d97706" stroke="#d97706" stroke-width="1.6" points="297.79,-84 307.79,-80.5 297.79,-77 297.79,-84"/>
<text text-anchor="middle" x="241" y="-103.3" font-family="Helvetica" font-size="9.00" fill="#92400e">outer SSH via DDNS</text>
<text text-anchor="middle" x="241" y="-93.3" font-family="Helvetica" font-size="9.00" fill="#92400e">home.ddns.example:22</text>
<text text-anchor="middle" x="241" y="-83.3" font-family="Helvetica" font-size="9.00" fill="#92400e">auth: MCP ed25519 key</text>
</g>
<!-- ARCH -->
<g id="node4" class="node">
<title>ARCH</title>
<path fill="#f8fafc" stroke="#475569" d="M1268,-101C1268,-101 1086,-101 1086,-101 1080,-101 1074,-95 1074,-89 1074,-89 1074,-72 1074,-72 1074,-66 1080,-60 1086,-60 1086,-60 1268,-60 1268,-60 1274,-60 1280,-66 1280,-72 1280,-72 1280,-89 1280,-89 1280,-95 1274,-101 1268,-101"/>
<text text-anchor="middle" x="1177" y="-89" font-family="Helvetica" font-size="10.00" fill="#0f172a">archive host</text>
<text text-anchor="middle" x="1177" y="-78" font-family="Helvetica" font-size="10.00" fill="#0f172a">owner account · read&#45;only sjmcp server</text>
<text text-anchor="middle" x="1177" y="-67" font-family="Helvetica" font-size="10.00" fill="#0f172a">key pinned to: command=&quot;sjmcp&#45;serve.sh&quot;</text>
</g>
<!-- CLIENT&#45;&gt;ARCH -->
<g id="edge5" class="edge">
<title>CLIENT&#45;&gt;ARCH</title>
<path fill="none" stroke="#0f172a" stroke-width="1.4" stroke-dasharray="5,2" d="M174.24,-60.71C255.06,-43.25 379.48,-19.12 489,-9.5 740.69,12.61 807.27,-6.09 1056,-50.5 1067.2,-52.5 1078.9,-54.95 1090.42,-57.59"/>
<polygon fill="#0f172a" stroke="#0f172a" stroke-width="1.4" points="1089.95,-61.07 1100.48,-59.95 1091.55,-54.26 1089.95,-61.07"/>
<text text-anchor="middle" x="584" y="-32.3" font-family="Helvetica" font-size="9.00" fill="#0f172a">inner SSH — END&#45;TO&#45;END through the tunnel</text>
<text text-anchor="middle" x="584" y="-22.3" font-family="Helvetica" font-size="9.00" fill="#0f172a">same MCP key · MCP JSON&#45;RPC over stdio</text>
<text text-anchor="middle" x="584" y="-12.3" font-family="Helvetica" font-size="9.00" fill="#0f172a">edge sees only ciphertext</text>
</g>
<!-- BAST -->
<g id="node3" class="node">
<title>BAST</title>
<path fill="#fef3c7" stroke="#d97706" d="M888,-106.5C888,-106.5 709,-106.5 709,-106.5 703,-106.5 697,-100.5 697,-94.5 697,-94.5 697,-66.5 697,-66.5 697,-60.5 703,-54.5 709,-54.5 709,-54.5 888,-54.5 888,-54.5 894,-54.5 900,-60.5 900,-66.5 900,-66.5 900,-94.5 900,-94.5 900,-100.5 894,-106.5 888,-106.5"/>
<text text-anchor="middle" x="798.5" y="-94.5" font-family="Helvetica" font-size="10.00" fill="#92400e">edge / bastion</text>
<text text-anchor="middle" x="798.5" y="-83.5" font-family="Helvetica" font-size="10.00" fill="#92400e">only internet&#45;facing box, holds no data</text>
<text text-anchor="middle" x="798.5" y="-72.5" font-family="Helvetica" font-size="10.00" fill="#92400e">key: permitopen=archive host only, no shell</text>
<text text-anchor="middle" x="798.5" y="-61.5" font-family="Helvetica" font-size="10.00" fill="#92400e">relays ciphertext — can&#39;t read MCP traffic</text>
</g>
<!-- RT&#45;&gt;BAST -->
<g id="edge2" class="edge">
<title>RT&#45;&gt;BAST</title>
<path fill="none" stroke="#475569" d="M471.4,-80.5C533.03,-80.5 618.58,-80.5 686.59,-80.5"/>
<polygon fill="#475569" stroke="#475569" points="686.92,-84 696.92,-80.5 686.92,-77 686.92,-84"/>
<text text-anchor="middle" x="584" y="-93.3" font-family="Helvetica" font-size="9.00" fill="#334155">DNAT public port</text>
<text text-anchor="middle" x="584" y="-83.3" font-family="Helvetica" font-size="9.00" fill="#334155">to edge SSH (:22)</text>
</g>
<!-- BAST&#45;&gt;ARCH -->
<g id="edge3" class="edge">
<title>BAST&#45;&gt;ARCH</title>
<path fill="none" stroke="#16a34a" stroke-width="1.6" d="M900.4,-80.5C950.73,-80.5 1011.78,-80.5 1063.61,-80.5"/>
<polygon fill="#16a34a" stroke="#16a34a" stroke-width="1.6" points="1063.84,-84 1073.84,-80.5 1063.84,-77 1063.84,-84"/>
<text text-anchor="middle" x="987" y="-93.3" font-family="Helvetica" font-size="9.00" fill="#166534">ProxyJump tunnel (LAN)</text>
<text text-anchor="middle" x="987" y="-83.3" font-family="Helvetica" font-size="9.00" fill="#166534">raw TCP to archive host only (:22)</text>
</g>
<!-- NAS -->
<g id="node5" class="node">
<title>NAS</title>
<polygon fill="#dcfce7" stroke="#16a34a" points="1537,-101 1534,-105 1513,-105 1510,-101 1397,-101 1397,-60 1537,-60 1537,-101"/>
<text text-anchor="middle" x="1467" y="-89" font-family="Helvetica" font-size="10.00" fill="#166534">NAS</text>
<text text-anchor="middle" x="1467" y="-78" font-family="Helvetica" font-size="10.00" fill="#166534">scrubjay&#45;storage/</text>
<text text-anchor="middle" x="1467" y="-67" font-family="Helvetica" font-size="10.00" fill="#166534">transcripts · plans · memory</text>
</g>
<!-- ARCH&#45;&gt;NAS -->
<g id="edge1" class="edge">
<title>ARCH&#45;&gt;NAS</title>
<path fill="none" stroke="#475569" d="M1280.35,-80.5C1315.37,-80.5 1353.98,-80.5 1386.88,-80.5"/>
<polygon fill="#475569" stroke="#475569" points="1386.9,-84 1396.9,-80.5 1386.9,-77 1386.9,-84"/>
<text text-anchor="middle" x="1338.5" y="-83.3" font-family="Helvetica" font-size="9.00" fill="#334155">reads (never writes)</text>
</g>
</g>
</svg>
