<?xml version="1.0" encoding="UTF-8" standalone="no"?>
<!DOCTYPE svg PUBLIC "-//W3C//DTD SVG 1.1//EN"
 "http://www.w3.org/Graphics/SVG/1.1/DTD/svg11.dtd">
<!-- Generated by graphviz version 2.43.0 (0)
 -->
<!-- Title: transport_ssh Pages: 1 -->
<svg width="1338pt" height="158pt"
 viewBox="0.00 0.00 1338.00 158.00" xmlns="http://www.w3.org/2000/svg" xmlns:xlink="http://www.w3.org/1999/xlink">
<g id="graph0" class="graph" transform="scale(1 1) rotate(0) translate(4 154)">
<title>transport_ssh</title>
<polygon fill="white" stroke="transparent" points="-4,4 -4,-154 1334,-154 1334,4 -4,4"/>
<text text-anchor="middle" x="289" y="-136.4" font-family="Helvetica,sans-Serif" font-size="12.00" fill="#0f172a">Transcript relay — peer&#45;to&#45;peer WITHOUT WireGuard (SSH/ProxyJump, e.g. an HPC login node)</text>
<g id="clust1" class="cluster">
<title>cluster_home</title>
<path fill="white" stroke="#94a3b8" d="M267,-8C267,-8 1310,-8 1310,-8 1316,-8 1322,-14 1322,-20 1322,-20 1322,-109 1322,-109 1322,-115 1316,-121 1310,-121 1310,-121 267,-121 267,-121 261,-121 255,-115 255,-109 255,-109 255,-20 255,-20 255,-14 261,-8 267,-8"/>
<text text-anchor="middle" x="313" y="-108.2" font-family="Helvetica,sans-Serif" font-size="11.00" fill="#334155">home (always&#45;on)</text>
</g>
<g id="clust2" class="cluster">
<title>cluster_internal</title>
<path fill="white" stroke="#16a34a" stroke-dasharray="5,2" d="M920,-16C920,-16 1302,-16 1302,-16 1308,-16 1314,-22 1314,-28 1314,-28 1314,-81 1314,-81 1314,-87 1308,-93 1302,-93 1302,-93 920,-93 920,-93 914,-93 908,-87 908,-81 908,-81 908,-28 908,-28 908,-22 914,-16 920,-16"/>
<text text-anchor="middle" x="994.5" y="-81" font-family="Helvetica,sans-Serif" font-size="10.00" fill="#166534">internal — never internet&#45;facing</text>
</g>
<!-- HPC -->
<g id="node1" class="node">
<title>HPC</title>
<path fill="#f8fafc" stroke="#475569" d="M122,-65.5C122,-65.5 12,-65.5 12,-65.5 6,-65.5 0,-59.5 0,-53.5 0,-53.5 0,-36.5 0,-36.5 0,-30.5 6,-24.5 12,-24.5 12,-24.5 122,-24.5 122,-24.5 128,-24.5 134,-30.5 134,-36.5 134,-36.5 134,-53.5 134,-53.5 134,-59.5 128,-65.5 122,-65.5"/>
<text text-anchor="middle" x="67" y="-53.5" font-family="Helvetica,sans-Serif" font-size="10.00" fill="#0f172a">HPC login node</text>
<text text-anchor="middle" x="67" y="-42.5" font-family="Helvetica,sans-Serif" font-size="10.00" fill="#0f172a">no WireGuard</text>
<text text-anchor="middle" x="67" y="-31.5" font-family="Helvetica,sans-Serif" font-size="10.00" fill="#0f172a">(outbound UDP blocked)</text>
</g>
<!-- RT -->
<g id="node2" class="node">
<title>RT</title>
<path fill="#f8fafc" stroke="#475569" d="M427,-63C427,-63 275,-63 275,-63 269,-63 263,-57 263,-51 263,-51 263,-39 263,-39 263,-33 269,-27 275,-27 275,-27 427,-27 427,-27 433,-27 439,-33 439,-39 439,-39 439,-51 439,-51 439,-57 433,-63 427,-63"/>
<text text-anchor="middle" x="351" y="-48" font-family="Helvetica,sans-Serif" font-size="10.00" fill="#0f172a">home router</text>
<text text-anchor="middle" x="351" y="-37" font-family="Helvetica,sans-Serif" font-size="10.00" fill="#0f172a">forwards ONE public port (DNAT)</text>
</g>
<!-- HPC&#45;&gt;RT -->
<g id="edge4" class="edge">
<title>HPC&#45;&gt;RT</title>
<path fill="none" stroke="#d97706" stroke-width="1.6" d="M134.12,-45C169.38,-45 213.46,-45 252.57,-45"/>
<polygon fill="#d97706" stroke="#d97706" stroke-width="1.6" points="252.93,-48.5 262.93,-45 252.93,-41.5 252.93,-48.5"/>
<text text-anchor="middle" x="198.5" y="-57.8" font-family="Helvetica,sans-Serif" font-size="9.00" fill="#92400e">public TCP via DDNS</text>
<text text-anchor="middle" x="198.5" y="-47.8" font-family="Helvetica,sans-Serif" font-size="9.00" fill="#92400e">home.ddns.example</text>
</g>
<!-- BAST -->
<g id="node3" class="node">
<title>BAST</title>
<path fill="#fef3c7" stroke="#d97706" d="M758,-65.5C758,-65.5 576,-65.5 576,-65.5 570,-65.5 564,-59.5 564,-53.5 564,-53.5 564,-36.5 564,-36.5 564,-30.5 570,-24.5 576,-24.5 576,-24.5 758,-24.5 758,-24.5 764,-24.5 770,-30.5 770,-36.5 770,-36.5 770,-53.5 770,-53.5 770,-59.5 764,-65.5 758,-65.5"/>
<text text-anchor="middle" x="667" y="-53.5" font-family="Helvetica,sans-Serif" font-size="10.00" fill="#92400e">edge / bastion</text>
<text text-anchor="middle" x="667" y="-42.5" font-family="Helvetica,sans-Serif" font-size="10.00" fill="#92400e">only internet&#45;facing box, holds no data</text>
<text text-anchor="middle" x="667" y="-31.5" font-family="Helvetica,sans-Serif" font-size="10.00" fill="#92400e">jump key tunnels to the receiver only</text>
</g>
<!-- RT&#45;&gt;BAST -->
<g id="edge2" class="edge">
<title>RT&#45;&gt;BAST</title>
<path fill="none" stroke="#475569" d="M439.05,-45C474.54,-45 516.02,-45 553.74,-45"/>
<polygon fill="#475569" stroke="#475569" points="553.76,-48.5 563.76,-45 553.76,-41.5 553.76,-48.5"/>
<text text-anchor="middle" x="501.5" y="-57.8" font-family="Helvetica,sans-Serif" font-size="9.00" fill="#334155">DNAT public port</text>
<text text-anchor="middle" x="501.5" y="-47.8" font-family="Helvetica,sans-Serif" font-size="9.00" fill="#334155">to bastion SSH port</text>
</g>
<!-- RX -->
<g id="node4" class="node">
<title>RX</title>
<path fill="#f8fafc" stroke="#475569" d="M1061,-65.5C1061,-65.5 928,-65.5 928,-65.5 922,-65.5 916,-59.5 916,-53.5 916,-53.5 916,-36.5 916,-36.5 916,-30.5 922,-24.5 928,-24.5 928,-24.5 1061,-24.5 1061,-24.5 1067,-24.5 1073,-30.5 1073,-36.5 1073,-36.5 1073,-53.5 1073,-53.5 1073,-59.5 1067,-65.5 1061,-65.5"/>
<text text-anchor="middle" x="994.5" y="-53.5" font-family="Helvetica,sans-Serif" font-size="10.00" fill="#0f172a">receiver</text>
<text text-anchor="middle" x="994.5" y="-42.5" font-family="Helvetica,sans-Serif" font-size="10.00" fill="#0f172a">write&#45;only rsync (rrsync &#45;wo)</text>
<text text-anchor="middle" x="994.5" y="-31.5" font-family="Helvetica,sans-Serif" font-size="10.00" fill="#0f172a">no shell, can&#39;t read back</text>
</g>
<!-- BAST&#45;&gt;RX -->
<g id="edge3" class="edge">
<title>BAST&#45;&gt;RX</title>
<path fill="none" stroke="#16a34a" stroke-width="1.6" d="M770.1,-45C813.59,-45 863.82,-45 905.63,-45"/>
<polygon fill="#16a34a" stroke="#16a34a" stroke-width="1.6" points="905.79,-48.5 915.79,-45 905.79,-41.5 905.79,-48.5"/>
<text text-anchor="middle" x="843" y="-57.8" font-family="Helvetica,sans-Serif" font-size="9.00" fill="#166534">ProxyJump tunnel (LAN)</text>
<text text-anchor="middle" x="843" y="-47.8" font-family="Helvetica,sans-Serif" font-size="9.00" fill="#166534">to receiver only</text>
</g>
<!-- NAS -->
<g id="node5" class="node">
<title>NAS</title>
<polygon fill="#dcfce7" stroke="#16a34a" points="1306,-63 1303,-67 1282,-67 1279,-63 1194,-63 1194,-27 1306,-27 1306,-63"/>
<text text-anchor="middle" x="1250" y="-48" font-family="Helvetica,sans-Serif" font-size="10.00" fill="#166534">NAS</text>
<text text-anchor="middle" x="1250" y="-37" font-family="Helvetica,sans-Serif" font-size="10.00" fill="#166534">scrubjay&#45;storage/</text>
</g>
<!-- RX&#45;&gt;NAS -->
<g id="edge1" class="edge">
<title>RX&#45;&gt;NAS</title>
<path fill="none" stroke="#475569" d="M1073.28,-45C1108.63,-45 1149.98,-45 1183.69,-45"/>
<polygon fill="#475569" stroke="#475569" points="1183.89,-48.5 1193.89,-45 1183.89,-41.5 1183.89,-48.5"/>
<text text-anchor="middle" x="1133.5" y="-57.8" font-family="Helvetica,sans-Serif" font-size="9.00" fill="#334155">land transcript +</text>
<text text-anchor="middle" x="1133.5" y="-47.8" font-family="Helvetica,sans-Serif" font-size="9.00" fill="#334155">subagents + plans</text>
</g>
</g>
</svg>
