<?xml version="1.0" encoding="UTF-8" standalone="no"?>
<!DOCTYPE svg PUBLIC "-//W3C//DTD SVG 1.1//EN"
 "http://www.w3.org/Graphics/SVG/1.1/DTD/svg11.dtd">
<!-- Generated by graphviz version 2.43.0 (0)
 -->
<!-- Title: transport_wg Pages: 1 -->
<svg width="734pt" height="123pt"
 viewBox="0.00 0.00 734.00 123.00" xmlns="http://www.w3.org/2000/svg" xmlns:xlink="http://www.w3.org/1999/xlink">
<g id="graph0" class="graph" transform="scale(1 1) rotate(0) translate(4 119)">
<title>transport_wg</title>
<polygon fill="white" stroke="transparent" points="-4,4 -4,-119 730,-119 730,4 -4,4"/>
<text text-anchor="middle" x="189" y="-101.4" font-family="Helvetica,sans-Serif" font-size="12.00" fill="#0f172a">Transcript relay — peer&#45;to&#45;peer over WireGuard (the default)</text>
<g id="clust1" class="cluster">
<title>cluster_home</title>
<path fill="white" stroke="#94a3b8" d="M316,-8C316,-8 706,-8 706,-8 712,-8 718,-14 718,-20 718,-20 718,-74 718,-74 718,-80 712,-86 706,-86 706,-86 316,-86 316,-86 310,-86 304,-80 304,-74 304,-74 304,-20 304,-20 304,-14 310,-8 316,-8"/>
<text text-anchor="middle" x="362" y="-73.2" font-family="Helvetica,sans-Serif" font-size="11.00" fill="#334155">home (always&#45;on)</text>
</g>
<!-- SND -->
<g id="node1" class="node">
<title>SND</title>
<path fill="#f8fafc" stroke="#475569" d="M89,-57.5C89,-57.5 12,-57.5 12,-57.5 6,-57.5 0,-51.5 0,-45.5 0,-45.5 0,-28.5 0,-28.5 0,-22.5 6,-16.5 12,-16.5 12,-16.5 89,-16.5 89,-16.5 95,-16.5 101,-22.5 101,-28.5 101,-28.5 101,-45.5 101,-45.5 101,-51.5 95,-57.5 89,-57.5"/>
<text text-anchor="middle" x="50.5" y="-45.5" font-family="Helvetica,sans-Serif" font-size="10.00" fill="#0f172a">your machine</text>
<text text-anchor="middle" x="50.5" y="-34.5" font-family="Helvetica,sans-Serif" font-size="10.00" fill="#0f172a">laptop · desktop</text>
<text text-anchor="middle" x="50.5" y="-23.5" font-family="Helvetica,sans-Serif" font-size="10.00" fill="#0f172a">(WireGuard peer)</text>
</g>
<!-- RX -->
<g id="node2" class="node">
<title>RX</title>
<path fill="#f8fafc" stroke="#475569" d="M465,-57.5C465,-57.5 324,-57.5 324,-57.5 318,-57.5 312,-51.5 312,-45.5 312,-45.5 312,-28.5 312,-28.5 312,-22.5 318,-16.5 324,-16.5 324,-16.5 465,-16.5 465,-16.5 471,-16.5 477,-22.5 477,-28.5 477,-28.5 477,-45.5 477,-45.5 477,-51.5 471,-57.5 465,-57.5"/>
<text text-anchor="middle" x="394.5" y="-45.5" font-family="Helvetica,sans-Serif" font-size="10.00" fill="#0f172a">receiver</text>
<text text-anchor="middle" x="394.5" y="-34.5" font-family="Helvetica,sans-Serif" font-size="10.00" fill="#0f172a">write&#45;only rsync (rrsync &#45;wo)</text>
<text text-anchor="middle" x="394.5" y="-23.5" font-family="Helvetica,sans-Serif" font-size="10.00" fill="#0f172a">holds no shell, can&#39;t read back</text>
</g>
<!-- SND&#45;&gt;RX -->
<g id="edge2" class="edge">
<title>SND&#45;&gt;RX</title>
<path fill="none" stroke="#16a34a" stroke-width="1.6" d="M101.23,-37C153.63,-37 237.34,-37 301.77,-37"/>
<polygon fill="#16a34a" stroke="#16a34a" stroke-width="1.6" points="301.94,-40.5 311.94,-37 301.94,-33.5 301.94,-40.5"/>
<text text-anchor="middle" x="206.5" y="-49.8" font-family="Helvetica,sans-Serif" font-size="9.00" fill="#166534">WireGuard tunnel — encrypted, direct</text>
<text text-anchor="middle" x="206.5" y="-39.8" font-family="Helvetica,sans-Serif" font-size="9.00" fill="#166534">no third party in the path</text>
</g>
<!-- NAS -->
<g id="node3" class="node">
<title>NAS</title>
<polygon fill="#dcfce7" stroke="#16a34a" points="710,-55 707,-59 686,-59 683,-55 598,-55 598,-19 710,-19 710,-55"/>
<text text-anchor="middle" x="654" y="-40" font-family="Helvetica,sans-Serif" font-size="10.00" fill="#166534">NAS</text>
<text text-anchor="middle" x="654" y="-29" font-family="Helvetica,sans-Serif" font-size="10.00" fill="#166534">scrubjay&#45;storage/</text>
</g>
<!-- RX&#45;&gt;NAS -->
<g id="edge1" class="edge">
<title>RX&#45;&gt;NAS</title>
<path fill="none" stroke="#475569" d="M477.33,-37C512.96,-37 554.15,-37 587.69,-37"/>
<polygon fill="#475569" stroke="#475569" points="587.83,-40.5 597.83,-37 587.83,-33.5 587.83,-40.5"/>
<text text-anchor="middle" x="537.5" y="-49.8" font-family="Helvetica,sans-Serif" font-size="9.00" fill="#334155">land transcript +</text>
<text text-anchor="middle" x="537.5" y="-39.8" font-family="Helvetica,sans-Serif" font-size="9.00" fill="#334155">subagents + plans</text>
</g>
</g>
</svg>
