<?xml version="1.0" encoding="UTF-8" standalone="no"?>
<!DOCTYPE svg PUBLIC "-//W3C//DTD SVG 1.1//EN"
 "http://www.w3.org/Graphics/SVG/1.1/DTD/svg11.dtd">
<!-- Generated by graphviz version 2.44.0 (0)
 -->
<!-- Title: dotclaude Pages: 1 -->
<svg width="780pt" height="352pt"
 viewBox="0.00 0.00 780.00 352.00" xmlns="http://www.w3.org/2000/svg" xmlns:xlink="http://www.w3.org/1999/xlink">
<g id="graph0" class="graph" transform="scale(1 1) rotate(0) translate(4 348)">
<title>dotclaude</title>
<polygon fill="white" stroke="transparent" points="-4,4 -4,-348 776,-348 776,4 -4,4"/>
<g id="clust1" class="cluster">
<title>cluster_A</title>
<path fill="white" stroke="#94a3b8" d="M69.5,-258C69.5,-258 752,-258 752,-258 758,-258 764,-264 764,-270 764,-270 764,-324 764,-324 764,-330 758,-336 752,-336 752,-336 69.5,-336 69.5,-336 63.5,-336 57.5,-330 57.5,-324 57.5,-324 57.5,-270 57.5,-270 57.5,-264 63.5,-258 69.5,-258"/>
<text text-anchor="middle" x="96" y="-323.2" font-family="Helvetica" font-size="11.00" fill="#334155">this machine</text>
</g>
<g id="clust2" class="cluster">
<title>cluster_B</title>
<path fill="white" stroke="#94a3b8" d="M74.5,-8C74.5,-8 696,-8 696,-8 702,-8 708,-14 708,-20 708,-20 708,-68 708,-68 708,-74 702,-80 696,-80 696,-80 74.5,-80 74.5,-80 68.5,-80 62.5,-74 62.5,-68 62.5,-68 62.5,-20 62.5,-20 62.5,-14 68.5,-8 74.5,-8"/>
<text text-anchor="middle" x="111" y="-67.2" font-family="Helvetica" font-size="11.00" fill="#334155">another machine</text>
</g>
<!-- GH -->
<g id="node1" class="node">
<title>GH</title>
<path fill="#dbeafe" stroke="#2563eb" d="M251,-235.48C251,-243.63 194.75,-250.25 125.5,-250.25 56.25,-250.25 0,-243.63 0,-235.48 0,-235.48 0,-102.52 0,-102.52 0,-94.37 56.25,-87.75 125.5,-87.75 194.75,-87.75 251,-94.37 251,-102.52 251,-102.52 251,-235.48 251,-235.48"/>
<path fill="none" stroke="#2563eb" d="M251,-235.48C251,-227.33 194.75,-220.7 125.5,-220.7 56.25,-220.7 0,-227.33 0,-235.48"/>
<text text-anchor="start" x="8" y="-216" font-family="Courier" font-size="10.00" fill="#1e3a8a">dotclaude — config repo</text>
<text text-anchor="start" x="8" y="-205" font-family="Courier" font-size="10.00" fill="#1e3a8a"> </text>
<text text-anchor="start" x="8" y="-194" font-family="Courier" font-size="10.00" fill="#1e3a8a">├ hosts/ &#160;&#160;&#160;&#160;&#160;per&#45;machine env</text>
<text text-anchor="start" x="8" y="-183" font-family="Courier" font-size="10.00" fill="#1e3a8a">├ settings/ &#160;&#160;shared base</text>
<text text-anchor="start" x="8" y="-172" font-family="Courier" font-size="10.00" fill="#1e3a8a">├ claude&#45;md/ &#160;rules · commands · agents</text>
<text text-anchor="start" x="8" y="-161" font-family="Courier" font-size="10.00" fill="#1e3a8a">├ templates/ &#160;project snippets</text>
<text text-anchor="start" x="8" y="-150" font-family="Courier" font-size="10.00" fill="#1e3a8a">├ memory/ &#160;&#160;&#160;&#160;portable facts</text>
<text text-anchor="start" x="8" y="-139" font-family="Courier" font-size="10.00" fill="#1e3a8a">├ hooks/ &#160;&#160;&#160;&#160;&#160;session&#45;log hook</text>
<text text-anchor="start" x="8" y="-128" font-family="Courier" font-size="10.00" fill="#1e3a8a">├ logs/ &#160;&#160;&#160;&#160;&#160;&#160;chat history</text>
<text text-anchor="start" x="8" y="-117" font-family="Courier" font-size="10.00" fill="#1e3a8a">└ bin/ &#160;&#160;&#160;&#160;&#160;&#160;&#160;sync scripts</text>
</g>
<!-- C1 -->
<g id="node2" class="node">
<title>C1</title>
<path fill="#f8fafc" stroke="#475569" d="M455.5,-304C455.5,-304 416.5,-304 416.5,-304 410.5,-304 404.5,-298 404.5,-292 404.5,-292 404.5,-280 404.5,-280 404.5,-274 410.5,-268 416.5,-268 416.5,-268 455.5,-268 455.5,-268 461.5,-268 467.5,-274 467.5,-280 467.5,-280 467.5,-292 467.5,-292 467.5,-298 461.5,-304 455.5,-304"/>
<text text-anchor="middle" x="436" y="-283.5" font-family="Helvetica" font-size="10.00" fill="#0f172a">local clone</text>
</g>
<!-- GH&#45;&gt;C1 -->
<g id="edge2" class="edge">
<title>GH&#45;&gt;C1</title>
<path fill="none" stroke="#475569" d="M260.66,-219.88C309.2,-238.29 360.44,-257.72 394.71,-270.72"/>
<polygon fill="#475569" stroke="#475569" points="261.68,-216.52 251.09,-216.25 259.2,-223.07 261.68,-216.52"/>
<polygon fill="#475569" stroke="#475569" points="393.75,-274.1 404.34,-274.37 396.24,-267.55 393.75,-274.1"/>
<text text-anchor="middle" x="322.5" y="-265.8" font-family="Helvetica" font-size="9.00" fill="#334155">git push / pull</text>
</g>
<!-- C2 -->
<g id="node5" class="node">
<title>C2</title>
<path fill="#f8fafc" stroke="#475569" d="M455.5,-52C455.5,-52 416.5,-52 416.5,-52 410.5,-52 404.5,-46 404.5,-40 404.5,-40 404.5,-28 404.5,-28 404.5,-22 410.5,-16 416.5,-16 416.5,-16 455.5,-16 455.5,-16 461.5,-16 467.5,-22 467.5,-28 467.5,-28 467.5,-40 467.5,-40 467.5,-46 461.5,-52 455.5,-52"/>
<text text-anchor="middle" x="436" y="-31.5" font-family="Helvetica" font-size="10.00" fill="#0f172a">local clone</text>
</g>
<!-- GH&#45;&gt;C2 -->
<g id="edge3" class="edge">
<title>GH&#45;&gt;C2</title>
<path fill="none" stroke="#475569" d="M260.32,-110.44C309.16,-89.07 360.78,-66.48 395.13,-51.45"/>
<polygon fill="#475569" stroke="#475569" points="258.85,-107.26 251.09,-114.48 261.65,-113.68 258.85,-107.26"/>
<polygon fill="#475569" stroke="#475569" points="396.59,-54.63 404.34,-47.42 393.78,-48.22 396.59,-54.63"/>
<text text-anchor="middle" x="322.5" y="-107.8" font-family="Helvetica" font-size="9.00" fill="#334155">git clone / pull</text>
</g>
<!-- FIND -->
<g id="node8" class="node">
<title>FIND</title>
<polygon fill="#dcfce7" stroke="#16a34a" points="472,-187 394,-187 394,-151 478,-151 478,-181 472,-187"/>
<polyline fill="none" stroke="#16a34a" points="472,-187 472,-181 "/>
<polyline fill="none" stroke="#16a34a" points="478,-181 472,-181 "/>
<text text-anchor="middle" x="436" y="-172" font-family="Helvetica" font-size="10.00" fill="#166534">find a past chat</text>
<text text-anchor="middle" x="436" y="-161" font-family="Helvetica" font-size="10.00" fill="#166534">grep logs/*.log</text>
</g>
<!-- GH&#45;&gt;FIND -->
<g id="edge1" class="edge">
<title>GH&#45;&gt;FIND</title>
<path fill="none" stroke="#475569" stroke-dasharray="5,2" d="M251.09,-169C297.36,-169 347.33,-169 383.49,-169"/>
<polygon fill="#475569" stroke="#475569" points="383.77,-172.5 393.77,-169 383.77,-165.5 383.77,-172.5"/>
<text text-anchor="middle" x="322.5" y="-171.8" font-family="Helvetica" font-size="9.00" fill="#334155">search every host&#39;s history</text>
</g>
<!-- CFG1 -->
<g id="node3" class="node">
<title>CFG1</title>
<path fill="#f8fafc" stroke="#475569" d="M744,-307.5C744,-307.5 599,-307.5 599,-307.5 593,-307.5 587,-301.5 587,-295.5 587,-295.5 587,-278.5 587,-278.5 587,-272.5 593,-266.5 599,-266.5 599,-266.5 744,-266.5 744,-266.5 750,-266.5 756,-272.5 756,-278.5 756,-278.5 756,-295.5 756,-295.5 756,-301.5 750,-307.5 744,-307.5"/>
<text text-anchor="middle" x="671.5" y="-295.5" font-family="Helvetica" font-size="10.00" fill="#0f172a">~/.claude</text>
<text text-anchor="middle" x="671.5" y="-284.5" font-family="Helvetica" font-size="10.00" fill="#0f172a">CLAUDE.md · commands · agents</text>
<text text-anchor="middle" x="671.5" y="-273.5" font-family="Helvetica" font-size="10.00" fill="#0f172a">settings.json (merged)</text>
</g>
<!-- C1&#45;&gt;CFG1 -->
<g id="edge4" class="edge">
<title>C1&#45;&gt;CFG1</title>
<path fill="none" stroke="#475569" d="M467.53,-286.13C495.27,-286.25 537.7,-286.43 576.6,-286.6"/>
<polygon fill="#475569" stroke="#475569" points="576.92,-290.1 586.93,-286.64 576.95,-283.1 576.92,-290.1"/>
<text text-anchor="middle" x="532.5" y="-298.8" font-family="Helvetica" font-size="9.00" fill="#334155">claude&#45;sync.sh</text>
<text text-anchor="middle" x="532.5" y="-288.8" font-family="Helvetica" font-size="9.00" fill="#334155">(symlink + merge)</text>
</g>
<!-- TX1 -->
<g id="node4" class="node">
<title>TX1</title>
<path fill="#fde68a" stroke="#d97706" d="M173.5,-304C173.5,-304 77.5,-304 77.5,-304 71.5,-304 65.5,-298 65.5,-292 65.5,-292 65.5,-280 65.5,-280 65.5,-274 71.5,-268 77.5,-268 77.5,-268 173.5,-268 173.5,-268 179.5,-268 185.5,-274 185.5,-280 185.5,-280 185.5,-292 185.5,-292 185.5,-298 179.5,-304 173.5,-304"/>
<text text-anchor="middle" x="125.5" y="-289" font-family="Helvetica" font-size="10.00" fill="#92400e">~/.claude/projects/**</text>
<text text-anchor="middle" x="125.5" y="-278" font-family="Helvetica" font-size="10.00" fill="#92400e">chat + agent transcripts</text>
</g>
<!-- TX1&#45;&gt;C1 -->
<g id="edge6" class="edge">
<title>TX1&#45;&gt;C1</title>
<path fill="none" stroke="#475569" stroke-dasharray="5,2" d="M185.62,-286C246.8,-286 340.74,-286 394.15,-286"/>
<polygon fill="#475569" stroke="#475569" points="394.27,-289.5 404.27,-286 394.27,-282.5 394.27,-289.5"/>
<text text-anchor="middle" x="322.5" y="-298.8" font-family="Helvetica" font-size="9.00" fill="#334155">claude&#45;index&#45;chats.sh</text>
<text text-anchor="middle" x="322.5" y="-288.8" font-family="Helvetica" font-size="9.00" fill="#334155">(metadata only)</text>
</g>
<!-- CFG2 -->
<g id="node6" class="node">
<title>CFG2</title>
<path fill="#f8fafc" stroke="#475569" d="M688,-52C688,-52 655,-52 655,-52 649,-52 643,-46 643,-40 643,-40 643,-28 643,-28 643,-22 649,-16 655,-16 655,-16 688,-16 688,-16 694,-16 700,-22 700,-28 700,-28 700,-40 700,-40 700,-46 694,-52 688,-52"/>
<text text-anchor="middle" x="671.5" y="-31.5" font-family="Helvetica" font-size="10.00" fill="#0f172a">~/.claude</text>
</g>
<!-- C2&#45;&gt;CFG2 -->
<g id="edge5" class="edge">
<title>C2&#45;&gt;CFG2</title>
<path fill="none" stroke="#475569" d="M467.53,-34C509.96,-34 586.73,-34 632.72,-34"/>
<polygon fill="#475569" stroke="#475569" points="632.88,-37.5 642.88,-34 632.88,-30.5 632.88,-37.5"/>
<text text-anchor="middle" x="532.5" y="-36.8" font-family="Helvetica" font-size="9.00" fill="#334155">claude&#45;sync.sh</text>
</g>
<!-- TX2 -->
<g id="node7" class="node">
<title>TX2</title>
<path fill="#fde68a" stroke="#d97706" d="M168.5,-52C168.5,-52 82.5,-52 82.5,-52 76.5,-52 70.5,-46 70.5,-40 70.5,-40 70.5,-28 70.5,-28 70.5,-22 76.5,-16 82.5,-16 82.5,-16 168.5,-16 168.5,-16 174.5,-16 180.5,-22 180.5,-28 180.5,-28 180.5,-40 180.5,-40 180.5,-46 174.5,-52 168.5,-52"/>
<text text-anchor="middle" x="125.5" y="-31.5" font-family="Helvetica" font-size="10.00" fill="#92400e">projects/** transcripts</text>
</g>
<!-- TX2&#45;&gt;C2 -->
<g id="edge7" class="edge">
<title>TX2&#45;&gt;C2</title>
<path fill="none" stroke="#475569" stroke-dasharray="5,2" d="M180.59,-34C241.63,-34 339.54,-34 394.39,-34"/>
<polygon fill="#475569" stroke="#475569" points="394.44,-37.5 404.44,-34 394.44,-30.5 394.44,-37.5"/>
<text text-anchor="middle" x="322.5" y="-36.8" font-family="Helvetica" font-size="9.00" fill="#334155">index</text>
</g>
</g>
</svg>
