<?xml version="1.0" encoding="UTF-8" standalone="no"?>
<!DOCTYPE svg PUBLIC "-//W3C//DTD SVG 1.1//EN"
 "http://www.w3.org/Graphics/SVG/1.1/DTD/svg11.dtd">
<!-- Generated by graphviz version 2.43.0 (0)
 -->
<!-- Title: dotclaude Pages: 1 -->
<svg width="795pt" height="276pt"
 viewBox="0.00 0.00 795.00 276.00" xmlns="http://www.w3.org/2000/svg" xmlns:xlink="http://www.w3.org/1999/xlink">
<g id="graph0" class="graph" transform="scale(1 1) rotate(0) translate(4 272)">
<title>dotclaude</title>
<polygon fill="white" stroke="transparent" points="-4,4 -4,-272 791,-272 791,4 -4,4"/>
<g id="clust1" class="cluster">
<title>cluster_gh</title>
<path fill="white" stroke="#cbd5e1" d="M20,-56C20,-56 143,-56 143,-56 149,-56 155,-62 155,-68 155,-68 155,-240 155,-240 155,-246 149,-252 143,-252 143,-252 20,-252 20,-252 14,-252 8,-246 8,-240 8,-240 8,-68 8,-68 8,-62 14,-56 20,-56"/>
<text text-anchor="middle" x="81.5" y="-239.2" font-family="Helvetica,sans-Serif" font-size="11.00" fill="#334155">GitHub</text>
</g>
<g id="clust2" class="cluster">
<title>cluster_m</title>
<path fill="white" stroke="#94a3b8" d="M325,-134C325,-134 436,-134 436,-134 442,-134 448,-140 448,-146 448,-146 448,-248 448,-248 448,-254 442,-260 436,-260 436,-260 325,-260 325,-260 319,-260 313,-254 313,-248 313,-248 313,-146 313,-146 313,-140 319,-134 325,-134"/>
<text text-anchor="middle" x="380.5" y="-247.2" font-family="Helvetica,sans-Serif" font-size="11.00" fill="#334155">any machine</text>
</g>
<g id="clust3" class="cluster">
<title>cluster_home</title>
<path fill="white" stroke="#94a3b8" d="M333.5,-8C333.5,-8 767,-8 767,-8 773,-8 779,-14 779,-20 779,-20 779,-68 779,-68 779,-74 773,-80 767,-80 767,-80 333.5,-80 333.5,-80 327.5,-80 321.5,-74 321.5,-68 321.5,-68 321.5,-20 321.5,-20 321.5,-14 327.5,-8 333.5,-8"/>
<text text-anchor="middle" x="550.25" y="-67.2" font-family="Helvetica,sans-Serif" font-size="11.00" fill="#334155">home (always&#45;on)</text>
</g>
<!-- APP -->
<g id="node1" class="node">
<title>APP</title>
<path fill="#dbeafe" stroke="#2563eb" d="M147,-219.98C147,-222.06 117.64,-223.75 81.5,-223.75 45.36,-223.75 16,-222.06 16,-219.98 16,-219.98 16,-186.02 16,-186.02 16,-183.94 45.36,-182.25 81.5,-182.25 117.64,-182.25 147,-183.94 147,-186.02 147,-186.02 147,-219.98 147,-219.98"/>
<path fill="none" stroke="#2563eb" d="M147,-219.98C147,-217.9 117.64,-216.21 81.5,-216.21 45.36,-216.21 16,-217.9 16,-219.98"/>
<text text-anchor="middle" x="81.5" y="-206" font-family="Helvetica,sans-Serif" font-size="10.00" fill="#1e3a8a">dotclaude</text>
<text text-anchor="middle" x="81.5" y="-195" font-family="Helvetica,sans-Serif" font-size="10.00" fill="#1e3a8a">app · logic (public&#45;able)</text>
</g>
<!-- CFG -->
<g id="node4" class="node">
<title>CFG</title>
<path fill="#f8fafc" stroke="#475569" d="M413,-232C413,-232 348,-232 348,-232 342,-232 336,-226 336,-220 336,-220 336,-208 336,-208 336,-202 342,-196 348,-196 348,-196 413,-196 413,-196 419,-196 425,-202 425,-208 425,-208 425,-220 425,-220 425,-226 419,-232 413,-232"/>
<text text-anchor="middle" x="380.5" y="-217" font-family="Helvetica,sans-Serif" font-size="10.00" fill="#0f172a">~/.claude</text>
<text text-anchor="middle" x="380.5" y="-206" font-family="Helvetica,sans-Serif" font-size="10.00" fill="#0f172a">config + hooks</text>
</g>
<!-- APP&#45;&gt;CFG -->
<g id="edge1" class="edge">
<title>APP&#45;&gt;CFG</title>
<path fill="none" stroke="#475569" d="M147.31,-205.4C200.69,-207.38 275.5,-210.15 325.63,-212"/>
<polygon fill="#475569" stroke="#475569" points="325.82,-215.51 335.94,-212.39 326.08,-208.52 325.82,-215.51"/>
<text text-anchor="middle" x="234" y="-223.8" font-family="Helvetica,sans-Serif" font-size="9.00" fill="#334155">sync: link hooks +</text>
<text text-anchor="middle" x="234" y="-213.8" font-family="Helvetica,sans-Serif" font-size="9.00" fill="#334155">merge settings</text>
</g>
<!-- DATA -->
<g id="node2" class="node">
<title>DATA</title>
<path fill="#ede9fe" stroke="#7c3aed" d="M143.5,-160.98C143.5,-163.06 115.71,-164.75 81.5,-164.75 47.29,-164.75 19.5,-163.06 19.5,-160.98 19.5,-160.98 19.5,-127.02 19.5,-127.02 19.5,-124.94 47.29,-123.25 81.5,-123.25 115.71,-123.25 143.5,-124.94 143.5,-127.02 143.5,-127.02 143.5,-160.98 143.5,-160.98"/>
<path fill="none" stroke="#7c3aed" d="M143.5,-160.98C143.5,-158.9 115.71,-157.21 81.5,-157.21 47.29,-157.21 19.5,-158.9 19.5,-160.98"/>
<text text-anchor="middle" x="81.5" y="-147" font-family="Helvetica,sans-Serif" font-size="10.00" fill="#5b21b6">dotclaude&#45;data</text>
<text text-anchor="middle" x="81.5" y="-136" font-family="Helvetica,sans-Serif" font-size="10.00" fill="#5b21b6">private · config + logs</text>
</g>
<!-- DATA&#45;&gt;CFG -->
<g id="edge2" class="edge">
<title>DATA&#45;&gt;CFG</title>
<path fill="none" stroke="#475569" d="M143.59,-156.17C187.99,-165.3 249.44,-178.48 303,-192 310.54,-193.9 318.46,-196.03 326.22,-198.19"/>
<polygon fill="#475569" stroke="#475569" points="325.37,-201.59 335.94,-200.94 327.27,-194.85 325.37,-201.59"/>
<text text-anchor="middle" x="234" y="-194.8" font-family="Helvetica,sans-Serif" font-size="9.00" fill="#334155">pull: rules, commands, agents</text>
</g>
<!-- FIND -->
<g id="node8" class="node">
<title>FIND</title>
<polygon fill="#dcfce7" stroke="#16a34a" points="420.5,-124 334.5,-124 334.5,-88 426.5,-88 426.5,-118 420.5,-124"/>
<polyline fill="none" stroke="#16a34a" points="420.5,-124 420.5,-118 "/>
<polyline fill="none" stroke="#16a34a" points="426.5,-118 420.5,-118 "/>
<text text-anchor="middle" x="380.5" y="-109" font-family="Helvetica,sans-Serif" font-size="10.00" fill="#166534">find a past chat</text>
<text text-anchor="middle" x="380.5" y="-98" font-family="Helvetica,sans-Serif" font-size="10.00" fill="#166534">grep logs/*.log</text>
</g>
<!-- DATA&#45;&gt;FIND -->
<g id="edge8" class="edge">
<title>DATA&#45;&gt;FIND</title>
<path fill="none" stroke="#475569" stroke-dasharray="5,2" d="M133.39,-124.25C143.71,-120.95 154.6,-117.97 165,-116 218.41,-105.9 280.57,-104.06 324.18,-104.35"/>
<polygon fill="#475569" stroke="#475569" points="324.26,-107.85 334.29,-104.46 324.33,-100.85 324.26,-107.85"/>
<text text-anchor="middle" x="234" y="-118.8" font-family="Helvetica,sans-Serif" font-size="9.00" fill="#334155">search history</text>
</g>
<!-- CH -->
<g id="node3" class="node">
<title>CH</title>
<path fill="#fef3c7" stroke="#d97706" d="M137.5,-101.98C137.5,-104.06 112.4,-105.75 81.5,-105.75 50.6,-105.75 25.5,-104.06 25.5,-101.98 25.5,-101.98 25.5,-68.02 25.5,-68.02 25.5,-65.94 50.6,-64.25 81.5,-64.25 112.4,-64.25 137.5,-65.94 137.5,-68.02 137.5,-68.02 137.5,-101.98 137.5,-101.98"/>
<path fill="none" stroke="#d97706" d="M137.5,-101.98C137.5,-99.9 112.4,-98.21 81.5,-98.21 50.6,-98.21 25.5,-99.9 25.5,-101.98"/>
<text text-anchor="middle" x="81.5" y="-88" font-family="Helvetica,sans-Serif" font-size="10.00" fill="#92400e">claude&#45;chats</text>
<text text-anchor="middle" x="81.5" y="-77" font-family="Helvetica,sans-Serif" font-size="10.00" fill="#92400e">private · transcripts</text>
</g>
<!-- PI -->
<g id="node6" class="node">
<title>PI</title>
<path fill="#f8fafc" stroke="#475569" d="M419.5,-52C419.5,-52 341.5,-52 341.5,-52 335.5,-52 329.5,-46 329.5,-40 329.5,-40 329.5,-28 329.5,-28 329.5,-22 335.5,-16 341.5,-16 341.5,-16 419.5,-16 419.5,-16 425.5,-16 431.5,-22 431.5,-28 431.5,-28 431.5,-40 431.5,-40 431.5,-46 425.5,-52 419.5,-52"/>
<text text-anchor="middle" x="380.5" y="-37" font-family="Helvetica,sans-Serif" font-size="10.00" fill="#0f172a">Raspberry Pi</text>
<text text-anchor="middle" x="380.5" y="-26" font-family="Helvetica,sans-Serif" font-size="10.00" fill="#0f172a">pull every 30 min</text>
</g>
<!-- CH&#45;&gt;PI -->
<g id="edge6" class="edge">
<title>CH&#45;&gt;PI</title>
<path fill="none" stroke="#475569" stroke-dasharray="5,2" d="M122.72,-64.83C135.89,-59.08 150.79,-53.45 165,-50 216.07,-37.62 275.81,-34.02 319.25,-33.28"/>
<polygon fill="#475569" stroke="#475569" points="319.42,-36.78 329.37,-33.16 319.33,-29.78 319.42,-36.78"/>
<text text-anchor="middle" x="234" y="-52.8" font-family="Helvetica,sans-Serif" font-size="9.00" fill="#334155">git pull / 30 min</text>
</g>
<!-- CFG&#45;&gt;DATA -->
<g id="edge3" class="edge">
<title>CFG&#45;&gt;DATA</title>
<path fill="none" stroke="#475569" stroke-dasharray="5,2" d="M336,-203.15C327.4,-199.27 319.15,-194.04 313,-187 301.23,-173.52 317.04,-159.1 303,-148 280.59,-130.28 209.4,-131.86 153.9,-136.26"/>
<polygon fill="#475569" stroke="#475569" points="153.41,-132.79 143.73,-137.11 153.99,-139.76 153.41,-132.79"/>
<text text-anchor="middle" x="234" y="-150.8" font-family="Helvetica,sans-Serif" font-size="9.00" fill="#334155">push: logs + chat index</text>
</g>
<!-- TX -->
<g id="node5" class="node">
<title>TX</title>
<path fill="#fef3c7" stroke="#d97706" d="M428,-178C428,-178 333,-178 333,-178 327,-178 321,-172 321,-166 321,-166 321,-154 321,-154 321,-148 327,-142 333,-142 333,-142 428,-142 428,-142 434,-142 440,-148 440,-154 440,-154 440,-166 440,-166 440,-172 434,-178 428,-178"/>
<text text-anchor="middle" x="380.5" y="-163" font-family="Helvetica,sans-Serif" font-size="10.00" fill="#92400e">~/.claude/projects/**</text>
<text text-anchor="middle" x="380.5" y="-152" font-family="Helvetica,sans-Serif" font-size="10.00" fill="#92400e">transcripts</text>
</g>
<!-- TX&#45;&gt;CH -->
<g id="edge5" class="edge">
<title>TX&#45;&gt;CH</title>
<path fill="none" stroke="#475569" stroke-dasharray="5,2" d="M322.72,-141.79C319.13,-139.23 315.83,-136.32 313,-133 300.26,-118.08 318.23,-102.38 303,-90 260.28,-55.28 196,-57.98 147.84,-67.02"/>
<polygon fill="#475569" stroke="#475569" points="146.94,-63.63 137.83,-69.04 148.32,-70.49 146.94,-63.63"/>
<text text-anchor="middle" x="234" y="-92.8" font-family="Helvetica,sans-Serif" font-size="9.00" fill="#334155">GitHub stopgap: ship .jsonl</text>
</g>
<!-- NAS -->
<g id="node7" class="node">
<title>NAS</title>
<polygon fill="#dcfce7" stroke="#16a34a" points="771,-52 768,-56 747,-56 744,-52 659,-52 659,-16 771,-16 771,-52"/>
<text text-anchor="middle" x="715" y="-37" font-family="Helvetica,sans-Serif" font-size="10.00" fill="#166534">NAS</text>
<text text-anchor="middle" x="715" y="-26" font-family="Helvetica,sans-Serif" font-size="10.00" fill="#166534">Claude&#45;Code&#45;chats/</text>
</g>
<!-- TX&#45;&gt;NAS -->
<g id="edge4" class="edge">
<title>TX&#45;&gt;NAS</title>
<path fill="none" stroke="#16a34a" stroke-width="1.6" d="M429.14,-141.95C489.26,-119.16 592.57,-80.02 656.87,-55.65"/>
<polygon fill="#16a34a" stroke="#16a34a" stroke-width="1.6" points="658.34,-58.84 666.45,-52.02 655.86,-52.29 658.34,-58.84"/>
<text text-anchor="middle" x="549.5" y="-141.8" font-family="Helvetica,sans-Serif" font-size="9.00" fill="#166534">SessionEnd: peer&#45;to&#45;peer relay</text>
<text text-anchor="middle" x="549.5" y="-131.8" font-family="Helvetica,sans-Serif" font-size="9.00" fill="#166534">(default → NAS; see transport diagrams)</text>
</g>
<!-- PI&#45;&gt;NAS -->
<g id="edge7" class="edge">
<title>PI&#45;&gt;NAS</title>
<path fill="none" stroke="#475569" stroke-dasharray="5,2" d="M431.64,-34C489.47,-34 584.73,-34 648.41,-34"/>
<polygon fill="#475569" stroke="#475569" points="648.73,-37.5 658.73,-34 648.73,-30.5 648.73,-37.5"/>
<text text-anchor="middle" x="549.5" y="-36.8" font-family="Helvetica,sans-Serif" font-size="9.00" fill="#334155">rsync &#45;&#45;delete</text>
</g>
</g>
</svg>
