<?xml version="1.0" encoding="UTF-8" standalone="no"?>
<!DOCTYPE svg PUBLIC "-//W3C//DTD SVG 1.1//EN"
 "http://www.w3.org/Graphics/SVG/1.1/DTD/svg11.dtd">
<!-- Generated by graphviz version 2.44.0 (0)
 -->
<!-- Title: dotclaude Pages: 1 -->
<svg width="619pt" height="276pt"
 viewBox="0.00 0.00 619.00 276.00" xmlns="http://www.w3.org/2000/svg" xmlns:xlink="http://www.w3.org/1999/xlink">
<g id="graph0" class="graph" transform="scale(1 1) rotate(0) translate(4 272)">
<title>dotclaude</title>
<polygon fill="white" stroke="transparent" points="-4,4 -4,-272 615,-272 615,4 -4,4"/>
<g id="clust1" class="cluster">
<title>cluster_gh</title>
<path fill="white" stroke="#cbd5e1" d="M20,-56C20,-56 130,-56 130,-56 136,-56 142,-62 142,-68 142,-68 142,-240 142,-240 142,-246 136,-252 130,-252 130,-252 20,-252 20,-252 14,-252 8,-246 8,-240 8,-240 8,-68 8,-68 8,-62 14,-56 20,-56"/>
<text text-anchor="middle" x="75" y="-239.2" font-family="Helvetica" font-size="11.00" fill="#334155">GitHub</text>
</g>
<g id="clust2" class="cluster">
<title>cluster_m</title>
<path fill="white" stroke="#94a3b8" d="M296,-134C296,-134 393,-134 393,-134 399,-134 405,-140 405,-146 405,-146 405,-248 405,-248 405,-254 399,-260 393,-260 393,-260 296,-260 296,-260 290,-260 284,-254 284,-248 284,-248 284,-146 284,-146 284,-140 290,-134 296,-134"/>
<text text-anchor="middle" x="344.5" y="-247.2" font-family="Helvetica" font-size="11.00" fill="#334155">any machine</text>
</g>
<g id="clust3" class="cluster">
<title>cluster_home</title>
<path fill="white" stroke="#94a3b8" d="M303,-8C303,-8 591,-8 591,-8 597,-8 603,-14 603,-20 603,-20 603,-68 603,-68 603,-74 597,-80 591,-80 591,-80 303,-80 303,-80 297,-80 291,-74 291,-68 291,-68 291,-20 291,-20 291,-14 297,-8 303,-8"/>
<text text-anchor="middle" x="447" y="-67.2" font-family="Helvetica" font-size="11.00" fill="#334155">home (always&#45;on)</text>
</g>
<!-- APP -->
<g id="node1" class="node">
<title>APP</title>
<path fill="#dbeafe" stroke="#2563eb" d="M134,-219.98C134,-222.06 107.56,-223.75 75,-223.75 42.44,-223.75 16,-222.06 16,-219.98 16,-219.98 16,-186.02 16,-186.02 16,-183.94 42.44,-182.25 75,-182.25 107.56,-182.25 134,-183.94 134,-186.02 134,-186.02 134,-219.98 134,-219.98"/>
<path fill="none" stroke="#2563eb" d="M134,-219.98C134,-217.9 107.56,-216.21 75,-216.21 42.44,-216.21 16,-217.9 16,-219.98"/>
<text text-anchor="middle" x="75" y="-206" font-family="Helvetica" font-size="10.00" fill="#1e3a8a">dotclaude</text>
<text text-anchor="middle" x="75" y="-195" font-family="Helvetica" font-size="10.00" fill="#1e3a8a">app · logic (public&#45;able)</text>
</g>
<!-- CFG -->
<g id="node4" class="node">
<title>CFG</title>
<path fill="#f8fafc" stroke="#475569" d="M373,-232C373,-232 316,-232 316,-232 310,-232 304,-226 304,-220 304,-220 304,-208 304,-208 304,-202 310,-196 316,-196 316,-196 373,-196 373,-196 379,-196 385,-202 385,-208 385,-208 385,-220 385,-220 385,-226 379,-232 373,-232"/>
<text text-anchor="middle" x="344.5" y="-217" font-family="Helvetica" font-size="10.00" fill="#0f172a">~/.claude</text>
<text text-anchor="middle" x="344.5" y="-206" font-family="Helvetica" font-size="10.00" fill="#0f172a">config + hooks</text>
</g>
<!-- APP&#45;&gt;CFG -->
<g id="edge1" class="edge">
<title>APP&#45;&gt;CFG</title>
<path fill="none" stroke="#475569" d="M134.04,-205.39C181.66,-207.34 248.36,-210.09 293.6,-211.95"/>
<polygon fill="#475569" stroke="#475569" points="293.63,-215.45 303.76,-212.37 293.92,-208.46 293.63,-215.45"/>
<text text-anchor="middle" x="213" y="-223.8" font-family="Helvetica" font-size="9.00" fill="#334155">sync: link hooks +</text>
<text text-anchor="middle" x="213" y="-213.8" font-family="Helvetica" font-size="9.00" fill="#334155">merge settings</text>
</g>
<!-- DATA -->
<g id="node2" class="node">
<title>DATA</title>
<path fill="#ede9fe" stroke="#7c3aed" d="M130,-160.98C130,-163.06 105.35,-164.75 75,-164.75 44.65,-164.75 20,-163.06 20,-160.98 20,-160.98 20,-127.02 20,-127.02 20,-124.94 44.65,-123.25 75,-123.25 105.35,-123.25 130,-124.94 130,-127.02 130,-127.02 130,-160.98 130,-160.98"/>
<path fill="none" stroke="#7c3aed" d="M130,-160.98C130,-158.9 105.35,-157.21 75,-157.21 44.65,-157.21 20,-158.9 20,-160.98"/>
<text text-anchor="middle" x="75" y="-147" font-family="Helvetica" font-size="10.00" fill="#5b21b6">dotclaude&#45;data</text>
<text text-anchor="middle" x="75" y="-136" font-family="Helvetica" font-size="10.00" fill="#5b21b6">private · config + logs</text>
</g>
<!-- DATA&#45;&gt;CFG -->
<g id="edge2" class="edge">
<title>DATA&#45;&gt;CFG</title>
<path fill="none" stroke="#475569" d="M130.04,-156.04C169.99,-165.2 225.62,-178.5 274,-192 280.55,-193.83 287.42,-195.86 294.17,-197.93"/>
<polygon fill="#475569" stroke="#475569" points="293.36,-201.34 303.95,-200.96 295.44,-194.65 293.36,-201.34"/>
<text text-anchor="middle" x="213" y="-194.8" font-family="Helvetica" font-size="9.00" fill="#334155">pull: rules, commands, agents</text>
</g>
<!-- FIND -->
<g id="node8" class="node">
<title>FIND</title>
<polygon fill="#dcfce7" stroke="#16a34a" points="380.5,-124 302.5,-124 302.5,-88 386.5,-88 386.5,-118 380.5,-124"/>
<polyline fill="none" stroke="#16a34a" points="380.5,-124 380.5,-118 "/>
<polyline fill="none" stroke="#16a34a" points="386.5,-118 380.5,-118 "/>
<text text-anchor="middle" x="344.5" y="-109" font-family="Helvetica" font-size="10.00" fill="#166534">find a past chat</text>
<text text-anchor="middle" x="344.5" y="-98" font-family="Helvetica" font-size="10.00" fill="#166534">grep logs/*.log</text>
</g>
<!-- DATA&#45;&gt;FIND -->
<g id="edge7" class="edge">
<title>DATA&#45;&gt;FIND</title>
<path fill="none" stroke="#475569" stroke-dasharray="5,2" d="M122.38,-124.41C132.02,-121.06 142.22,-118.01 152,-116 198.85,-106.38 253.42,-104.41 292.3,-104.53"/>
<polygon fill="#475569" stroke="#475569" points="292.3,-108.03 302.33,-104.61 292.36,-101.03 292.3,-108.03"/>
<text text-anchor="middle" x="213" y="-118.8" font-family="Helvetica" font-size="9.00" fill="#334155">search history</text>
</g>
<!-- CH -->
<g id="node3" class="node">
<title>CH</title>
<path fill="#fef3c7" stroke="#d97706" d="M125,-101.98C125,-104.06 102.59,-105.75 75,-105.75 47.41,-105.75 25,-104.06 25,-101.98 25,-101.98 25,-68.02 25,-68.02 25,-65.94 47.41,-64.25 75,-64.25 102.59,-64.25 125,-65.94 125,-68.02 125,-68.02 125,-101.98 125,-101.98"/>
<path fill="none" stroke="#d97706" d="M125,-101.98C125,-99.9 102.59,-98.21 75,-98.21 47.41,-98.21 25,-99.9 25,-101.98"/>
<text text-anchor="middle" x="75" y="-88" font-family="Helvetica" font-size="10.00" fill="#92400e">claude&#45;chats</text>
<text text-anchor="middle" x="75" y="-77" font-family="Helvetica" font-size="10.00" fill="#92400e">private · transcripts</text>
</g>
<!-- PI -->
<g id="node6" class="node">
<title>PI</title>
<path fill="#f8fafc" stroke="#475569" d="M378,-52C378,-52 311,-52 311,-52 305,-52 299,-46 299,-40 299,-40 299,-28 299,-28 299,-22 305,-16 311,-16 311,-16 378,-16 378,-16 384,-16 390,-22 390,-28 390,-28 390,-40 390,-40 390,-46 384,-52 378,-52"/>
<text text-anchor="middle" x="344.5" y="-37" font-family="Helvetica" font-size="10.00" fill="#0f172a">Raspberry Pi</text>
<text text-anchor="middle" x="344.5" y="-26" font-family="Helvetica" font-size="10.00" fill="#0f172a">pull every 30 min</text>
</g>
<!-- CH&#45;&gt;PI -->
<g id="edge5" class="edge">
<title>CH&#45;&gt;PI</title>
<path fill="none" stroke="#475569" d="M112.92,-64.87C125.04,-59.12 138.8,-53.48 152,-50 197.02,-38.15 249.85,-34.46 288.61,-33.56"/>
<polygon fill="#475569" stroke="#475569" points="288.71,-37.06 298.64,-33.38 288.58,-30.06 288.71,-37.06"/>
<text text-anchor="middle" x="213" y="-52.8" font-family="Helvetica" font-size="9.00" fill="#334155">git pull / 30 min</text>
</g>
<!-- CFG&#45;&gt;DATA -->
<g id="edge3" class="edge">
<title>CFG&#45;&gt;DATA</title>
<path fill="none" stroke="#475569" stroke-dasharray="5,2" d="M303.91,-202.06C296.45,-198.27 289.32,-193.34 284,-187 272.5,-173.29 288.03,-159.11 274,-148 253.89,-132.07 189.95,-133.35 140.11,-137.19"/>
<polygon fill="#475569" stroke="#475569" points="139.71,-133.71 130.03,-138.02 140.28,-140.69 139.71,-133.71"/>
<text text-anchor="middle" x="213" y="-150.8" font-family="Helvetica" font-size="9.00" fill="#334155">push: logs + chat index</text>
</g>
<!-- TX -->
<g id="node5" class="node">
<title>TX</title>
<path fill="#fef3c7" stroke="#d97706" d="M385,-178C385,-178 304,-178 304,-178 298,-178 292,-172 292,-166 292,-166 292,-154 292,-154 292,-148 298,-142 304,-142 304,-142 385,-142 385,-142 391,-142 397,-148 397,-154 397,-154 397,-166 397,-166 397,-172 391,-178 385,-178"/>
<text text-anchor="middle" x="344.5" y="-163" font-family="Helvetica" font-size="10.00" fill="#92400e">~/.claude/projects/**</text>
<text text-anchor="middle" x="344.5" y="-152" font-family="Helvetica" font-size="10.00" fill="#92400e">transcripts</text>
</g>
<!-- TX&#45;&gt;CH -->
<g id="edge4" class="edge">
<title>TX&#45;&gt;CH</title>
<path fill="none" stroke="#475569" d="M293.49,-141.86C289.97,-139.27 286.73,-136.33 284,-133 271.56,-117.83 289.21,-102.4 274,-90 235.79,-58.86 178.3,-61.03 135.09,-68.96"/>
<polygon fill="#475569" stroke="#475569" points="134.4,-65.53 125.27,-70.91 135.76,-72.4 134.4,-65.53"/>
<text text-anchor="middle" x="213" y="-92.8" font-family="Helvetica" font-size="9.00" fill="#334155">SessionEnd: ship .jsonl</text>
</g>
<!-- NAS -->
<g id="node7" class="node">
<title>NAS</title>
<polygon fill="#dcfce7" stroke="#16a34a" points="595,-52 592,-56 571,-56 568,-52 489,-52 489,-16 595,-16 595,-52"/>
<text text-anchor="middle" x="542" y="-37" font-family="Helvetica" font-size="10.00" fill="#166534">NAS</text>
<text text-anchor="middle" x="542" y="-26" font-family="Helvetica" font-size="10.00" fill="#166534">Claude&#45;Code&#45;chats/</text>
</g>
<!-- PI&#45;&gt;NAS -->
<g id="edge6" class="edge">
<title>PI&#45;&gt;NAS</title>
<path fill="none" stroke="#475569" d="M390.35,-34C416.46,-34 449.76,-34 478.42,-34"/>
<polygon fill="#475569" stroke="#475569" points="478.74,-37.5 488.74,-34 478.74,-30.5 478.74,-37.5"/>
<text text-anchor="middle" x="443" y="-36.8" font-family="Helvetica" font-size="9.00" fill="#334155">rsync &#45;&#45;delete</text>
</g>
</g>
</svg>
