<?xml version="1.0" encoding="UTF-8" standalone="no"?>
<!DOCTYPE svg PUBLIC "-//W3C//DTD SVG 1.1//EN"
 "http://www.w3.org/Graphics/SVG/1.1/DTD/svg11.dtd">
<!-- Generated by graphviz version 2.44.0 (0)
 -->
<!-- Title: dotclaude Pages: 1 -->
<svg width="741pt" height="322pt"
 viewBox="0.00 0.00 741.00 322.00" xmlns="http://www.w3.org/2000/svg" xmlns:xlink="http://www.w3.org/1999/xlink">
<g id="graph0" class="graph" transform="scale(1 1) rotate(0) translate(4 318)">
<title>dotclaude</title>
<polygon fill="white" stroke="transparent" points="-4,4 -4,-318 737,-318 737,4 -4,4"/>
<g id="clust1" class="cluster">
<title>cluster_A</title>
<path fill="white" stroke="#94a3b8" d="M69.5,-228C69.5,-228 713,-228 713,-228 719,-228 725,-234 725,-240 725,-240 725,-294 725,-294 725,-300 719,-306 713,-306 713,-306 69.5,-306 69.5,-306 63.5,-306 57.5,-300 57.5,-294 57.5,-294 57.5,-240 57.5,-240 57.5,-234 63.5,-228 69.5,-228"/>
<text text-anchor="middle" x="96" y="-293.2" font-family="Helvetica" font-size="11.00" fill="#334155">this machine</text>
</g>
<g id="clust2" class="cluster">
<title>cluster_B</title>
<path fill="white" stroke="#94a3b8" d="M74.5,-8C74.5,-8 657,-8 657,-8 663,-8 669,-14 669,-20 669,-20 669,-68 669,-68 669,-74 663,-80 657,-80 657,-80 74.5,-80 74.5,-80 68.5,-80 62.5,-74 62.5,-68 62.5,-68 62.5,-20 62.5,-20 62.5,-14 68.5,-8 74.5,-8"/>
<text text-anchor="middle" x="111" y="-67.2" font-family="Helvetica" font-size="11.00" fill="#334155">another machine</text>
</g>
<!-- GH -->
<g id="node1" class="node">
<title>GH</title>
<path fill="#dbeafe" stroke="#2563eb" d="M251,-208C251,-214.62 194.75,-220 125.5,-220 56.25,-220 0,-214.62 0,-208 0,-208 0,-100 0,-100 0,-93.38 56.25,-88 125.5,-88 194.75,-88 251,-93.38 251,-100 251,-100 251,-208 251,-208"/>
<path fill="none" stroke="#2563eb" d="M251,-208C251,-201.38 194.75,-196 125.5,-196 56.25,-196 0,-201.38 0,-208"/>
<text text-anchor="start" x="8" y="-190" font-family="Courier" font-size="10.00" fill="#1e3a8a">dotclaude — config repo</text>
<text text-anchor="start" x="8" y="-179" font-family="Courier" font-size="10.00" fill="#1e3a8a"> </text>
<text text-anchor="start" x="8" y="-168" font-family="Courier" font-size="10.00" fill="#1e3a8a">├ hosts/ &#160;&#160;&#160;&#160;&#160;per&#45;machine env</text>
<text text-anchor="start" x="8" y="-157" font-family="Courier" font-size="10.00" fill="#1e3a8a">├ settings/ &#160;&#160;shared base</text>
<text text-anchor="start" x="8" y="-146" font-family="Courier" font-size="10.00" fill="#1e3a8a">├ claude&#45;md/ &#160;rules · commands · agents</text>
<text text-anchor="start" x="8" y="-135" font-family="Courier" font-size="10.00" fill="#1e3a8a">├ templates/ &#160;project snippets</text>
<text text-anchor="start" x="8" y="-124" font-family="Courier" font-size="10.00" fill="#1e3a8a">├ memory/ &#160;&#160;&#160;&#160;portable facts</text>
<text text-anchor="start" x="8" y="-113" font-family="Courier" font-size="10.00" fill="#1e3a8a">└ bin/ &#160;&#160;&#160;&#160;&#160;&#160;&#160;sync scripts</text>
</g>
<!-- C1 -->
<g id="node2" class="node">
<title>C1</title>
<path fill="#f8fafc" stroke="#475569" d="M427,-274C427,-274 388,-274 388,-274 382,-274 376,-268 376,-262 376,-262 376,-250 376,-250 376,-244 382,-238 388,-238 388,-238 427,-238 427,-238 433,-238 439,-244 439,-250 439,-250 439,-262 439,-262 439,-268 433,-274 427,-274"/>
<text text-anchor="middle" x="407.5" y="-253.5" font-family="Helvetica" font-size="10.00" fill="#0f172a">local clone</text>
</g>
<!-- GH&#45;&gt;C1 -->
<g id="edge1" class="edge">
<title>GH&#45;&gt;C1</title>
<path fill="none" stroke="#475569" d="M260.83,-202.93C299.4,-216.99 338.56,-231.25 366.54,-241.44"/>
<polygon fill="#475569" stroke="#475569" points="261.94,-199.62 251.35,-199.48 259.55,-206.19 261.94,-199.62"/>
<polygon fill="#475569" stroke="#475569" points="365.36,-244.74 375.96,-244.87 367.76,-238.16 365.36,-244.74"/>
<text text-anchor="middle" x="313.5" y="-238.8" font-family="Helvetica" font-size="9.00" fill="#334155">git push / pull</text>
</g>
<!-- C2 -->
<g id="node5" class="node">
<title>C2</title>
<path fill="#f8fafc" stroke="#475569" d="M427,-52C427,-52 388,-52 388,-52 382,-52 376,-46 376,-40 376,-40 376,-28 376,-28 376,-22 382,-16 388,-16 388,-16 427,-16 427,-16 433,-16 439,-22 439,-28 439,-28 439,-40 439,-40 439,-46 433,-52 427,-52"/>
<text text-anchor="middle" x="407.5" y="-31.5" font-family="Helvetica" font-size="10.00" fill="#0f172a">local clone</text>
</g>
<!-- GH&#45;&gt;C2 -->
<g id="edge2" class="edge">
<title>GH&#45;&gt;C2</title>
<path fill="none" stroke="#475569" d="M260.55,-96.55C299.21,-79.98 338.47,-63.15 366.52,-51.13"/>
<polygon fill="#475569" stroke="#475569" points="259.16,-93.34 251.35,-100.49 261.92,-99.77 259.16,-93.34"/>
<polygon fill="#475569" stroke="#475569" points="368.15,-54.25 375.96,-47.09 365.39,-47.81 368.15,-54.25"/>
<text text-anchor="middle" x="313.5" y="-92.8" font-family="Helvetica" font-size="9.00" fill="#334155">git clone / pull</text>
</g>
<!-- CFG1 -->
<g id="node3" class="node">
<title>CFG1</title>
<path fill="#f8fafc" stroke="#475569" d="M705,-277.5C705,-277.5 560,-277.5 560,-277.5 554,-277.5 548,-271.5 548,-265.5 548,-265.5 548,-248.5 548,-248.5 548,-242.5 554,-236.5 560,-236.5 560,-236.5 705,-236.5 705,-236.5 711,-236.5 717,-242.5 717,-248.5 717,-248.5 717,-265.5 717,-265.5 717,-271.5 711,-277.5 705,-277.5"/>
<text text-anchor="middle" x="632.5" y="-265.5" font-family="Helvetica" font-size="10.00" fill="#0f172a">~/.claude</text>
<text text-anchor="middle" x="632.5" y="-254.5" font-family="Helvetica" font-size="10.00" fill="#0f172a">CLAUDE.md · commands · agents</text>
<text text-anchor="middle" x="632.5" y="-243.5" font-family="Helvetica" font-size="10.00" fill="#0f172a">settings.json (merged)</text>
</g>
<!-- C1&#45;&gt;CFG1 -->
<g id="edge3" class="edge">
<title>C1&#45;&gt;CFG1</title>
<path fill="none" stroke="#475569" d="M439.04,-256.14C464.44,-256.25 502.02,-256.42 537.24,-256.58"/>
<polygon fill="#475569" stroke="#475569" points="537.57,-260.08 547.58,-256.62 537.6,-253.08 537.57,-260.08"/>
<text text-anchor="middle" x="493.5" y="-268.8" font-family="Helvetica" font-size="9.00" fill="#334155">claude&#45;sync.sh</text>
<text text-anchor="middle" x="493.5" y="-258.8" font-family="Helvetica" font-size="9.00" fill="#334155">(symlink + merge)</text>
</g>
<!-- TX1 -->
<g id="node4" class="node">
<title>TX1</title>
<path fill="#fde68a" stroke="#d97706" d="M173.5,-274C173.5,-274 77.5,-274 77.5,-274 71.5,-274 65.5,-268 65.5,-262 65.5,-262 65.5,-250 65.5,-250 65.5,-244 71.5,-238 77.5,-238 77.5,-238 173.5,-238 173.5,-238 179.5,-238 185.5,-244 185.5,-250 185.5,-250 185.5,-262 185.5,-262 185.5,-268 179.5,-274 173.5,-274"/>
<text text-anchor="middle" x="125.5" y="-259" font-family="Helvetica" font-size="10.00" fill="#92400e">~/.claude/projects/**</text>
<text text-anchor="middle" x="125.5" y="-248" font-family="Helvetica" font-size="10.00" fill="#92400e">chat + agent transcripts</text>
</g>
<!-- TX1&#45;&gt;C1 -->
<g id="edge5" class="edge">
<title>TX1&#45;&gt;C1</title>
<path fill="none" stroke="#475569" stroke-dasharray="5,2" d="M185.54,-256C239.54,-256 318.02,-256 365.46,-256"/>
<polygon fill="#475569" stroke="#475569" points="365.67,-259.5 375.67,-256 365.67,-252.5 365.67,-259.5"/>
<text text-anchor="middle" x="313.5" y="-268.8" font-family="Helvetica" font-size="9.00" fill="#334155">claude&#45;index&#45;chats.sh</text>
<text text-anchor="middle" x="313.5" y="-258.8" font-family="Helvetica" font-size="9.00" fill="#334155">(metadata only)</text>
</g>
<!-- CFG2 -->
<g id="node6" class="node">
<title>CFG2</title>
<path fill="#f8fafc" stroke="#475569" d="M649,-52C649,-52 616,-52 616,-52 610,-52 604,-46 604,-40 604,-40 604,-28 604,-28 604,-22 610,-16 616,-16 616,-16 649,-16 649,-16 655,-16 661,-22 661,-28 661,-28 661,-40 661,-40 661,-46 655,-52 649,-52"/>
<text text-anchor="middle" x="632.5" y="-31.5" font-family="Helvetica" font-size="10.00" fill="#0f172a">~/.claude</text>
</g>
<!-- C2&#45;&gt;CFG2 -->
<g id="edge4" class="edge">
<title>C2&#45;&gt;CFG2</title>
<path fill="none" stroke="#475569" d="M439.04,-34C479.26,-34 549.98,-34 593.58,-34"/>
<polygon fill="#475569" stroke="#475569" points="593.78,-37.5 603.78,-34 593.78,-30.5 593.78,-37.5"/>
<text text-anchor="middle" x="493.5" y="-36.8" font-family="Helvetica" font-size="9.00" fill="#334155">claude&#45;sync.sh</text>
</g>
<!-- TX2 -->
<g id="node7" class="node">
<title>TX2</title>
<path fill="#fde68a" stroke="#d97706" d="M168.5,-52C168.5,-52 82.5,-52 82.5,-52 76.5,-52 70.5,-46 70.5,-40 70.5,-40 70.5,-28 70.5,-28 70.5,-22 76.5,-16 82.5,-16 82.5,-16 168.5,-16 168.5,-16 174.5,-16 180.5,-22 180.5,-28 180.5,-28 180.5,-40 180.5,-40 180.5,-46 174.5,-52 168.5,-52"/>
<text text-anchor="middle" x="125.5" y="-31.5" font-family="Helvetica" font-size="10.00" fill="#92400e">projects/** transcripts</text>
</g>
<!-- TX2&#45;&gt;C2 -->
<g id="edge6" class="edge">
<title>TX2&#45;&gt;C2</title>
<path fill="none" stroke="#475569" stroke-dasharray="5,2" d="M180.82,-34C234.9,-34 316.69,-34 365.53,-34"/>
<polygon fill="#475569" stroke="#475569" points="365.73,-37.5 375.73,-34 365.73,-30.5 365.73,-37.5"/>
<text text-anchor="middle" x="313.5" y="-36.8" font-family="Helvetica" font-size="9.00" fill="#334155">index</text>
</g>
</g>
</svg>
