<?xml version="1.0" encoding="UTF-8" standalone="no"?>
<!DOCTYPE svg PUBLIC "-//W3C//DTD SVG 1.1//EN"
 "http://www.w3.org/Graphics/SVG/1.1/DTD/svg11.dtd">
<!-- Generated by graphviz version 2.44.0 (0)
 -->
<!-- Title: dotclaude Pages: 1 -->
<svg width="741pt" height="352pt"
 viewBox="0.00 0.00 741.00 352.00" xmlns="http://www.w3.org/2000/svg" xmlns:xlink="http://www.w3.org/1999/xlink">
<g id="graph0" class="graph" transform="scale(1 1) rotate(0) translate(4 348)">
<title>dotclaude</title>
<polygon fill="white" stroke="transparent" points="-4,4 -4,-348 737,-348 737,4 -4,4"/>
<g id="clust1" class="cluster">
<title>cluster_A</title>
<path fill="white" stroke="#94a3b8" d="M69.5,-258C69.5,-258 713,-258 713,-258 719,-258 725,-264 725,-270 725,-270 725,-324 725,-324 725,-330 719,-336 713,-336 713,-336 69.5,-336 69.5,-336 63.5,-336 57.5,-330 57.5,-324 57.5,-324 57.5,-270 57.5,-270 57.5,-264 63.5,-258 69.5,-258"/>
<text text-anchor="middle" x="96" y="-323.2" font-family="Helvetica" font-size="11.00" fill="#334155">this machine</text>
</g>
<g id="clust2" class="cluster">
<title>cluster_B</title>
<path fill="white" stroke="#94a3b8" d="M74.5,-8C74.5,-8 657,-8 657,-8 663,-8 669,-14 669,-20 669,-20 669,-68 669,-68 669,-74 663,-80 657,-80 657,-80 74.5,-80 74.5,-80 68.5,-80 62.5,-74 62.5,-68 62.5,-68 62.5,-20 62.5,-20 62.5,-14 68.5,-8 74.5,-8"/>
<text text-anchor="middle" x="111" y="-67.2" font-family="Helvetica" font-size="11.00" fill="#334155">another machine</text>
</g>
<!-- GH -->
<g id="node1" class="node">
<title>GH</title>
<path fill="#dbeafe" stroke="#2563eb" d="M251,-235.48C251,-243.63 194.75,-250.25 125.5,-250.25 56.25,-250.25 0,-243.63 0,-235.48 0,-235.48 0,-102.52 0,-102.52 0,-94.37 56.25,-87.75 125.5,-87.75 194.75,-87.75 251,-94.37 251,-102.52 251,-102.52 251,-235.48 251,-235.48"/>
<path fill="none" stroke="#2563eb" d="M251,-235.48C251,-227.33 194.75,-220.7 125.5,-220.7 56.25,-220.7 0,-227.33 0,-235.48"/>
<text text-anchor="start" x="8" y="-216" font-family="Courier" font-size="10.00" fill="#1e3a8a">dotclaude — config repo</text>
<text text-anchor="start" x="8" y="-205" font-family="Courier" font-size="10.00" fill="#1e3a8a"> </text>
<text text-anchor="start" x="8" y="-194" font-family="Courier" font-size="10.00" fill="#1e3a8a">├ hosts/ &#160;&#160;&#160;&#160;&#160;per&#45;machine env</text>
<text text-anchor="start" x="8" y="-183" font-family="Courier" font-size="10.00" fill="#1e3a8a">├ settings/ &#160;&#160;shared base</text>
<text text-anchor="start" x="8" y="-172" font-family="Courier" font-size="10.00" fill="#1e3a8a">├ claude&#45;md/ &#160;rules · commands · agents</text>
<text text-anchor="start" x="8" y="-161" font-family="Courier" font-size="10.00" fill="#1e3a8a">├ templates/ &#160;project snippets</text>
<text text-anchor="start" x="8" y="-150" font-family="Courier" font-size="10.00" fill="#1e3a8a">├ memory/ &#160;&#160;&#160;&#160;portable facts</text>
<text text-anchor="start" x="8" y="-139" font-family="Courier" font-size="10.00" fill="#1e3a8a">├ hooks/ &#160;&#160;&#160;&#160;&#160;session&#45;log hook</text>
<text text-anchor="start" x="8" y="-128" font-family="Courier" font-size="10.00" fill="#1e3a8a">├ logs/ &#160;&#160;&#160;&#160;&#160;&#160;chat history</text>
<text text-anchor="start" x="8" y="-117" font-family="Courier" font-size="10.00" fill="#1e3a8a">└ bin/ &#160;&#160;&#160;&#160;&#160;&#160;&#160;sync scripts</text>
</g>
<!-- C1 -->
<g id="node2" class="node">
<title>C1</title>
<path fill="#f8fafc" stroke="#475569" d="M427,-304C427,-304 388,-304 388,-304 382,-304 376,-298 376,-292 376,-292 376,-280 376,-280 376,-274 382,-268 388,-268 388,-268 427,-268 427,-268 433,-268 439,-274 439,-280 439,-280 439,-292 439,-292 439,-298 433,-304 427,-304"/>
<text text-anchor="middle" x="407.5" y="-283.5" font-family="Helvetica" font-size="10.00" fill="#0f172a">local clone</text>
</g>
<!-- GH&#45;&gt;C1 -->
<g id="edge1" class="edge">
<title>GH&#45;&gt;C1</title>
<path fill="none" stroke="#475569" d="M260.83,-225.13C299.4,-241.25 338.56,-257.61 366.54,-269.3"/>
<polygon fill="#475569" stroke="#475569" points="261.93,-221.8 251.35,-221.17 259.23,-228.25 261.93,-221.8"/>
<polygon fill="#475569" stroke="#475569" points="365.38,-272.61 375.96,-273.24 368.08,-266.15 365.38,-272.61"/>
<text text-anchor="middle" x="313.5" y="-265.8" font-family="Helvetica" font-size="9.00" fill="#334155">git push / pull</text>
</g>
<!-- C2 -->
<g id="node5" class="node">
<title>C2</title>
<path fill="#f8fafc" stroke="#475569" d="M427,-52C427,-52 388,-52 388,-52 382,-52 376,-46 376,-40 376,-40 376,-28 376,-28 376,-22 382,-16 388,-16 388,-16 427,-16 427,-16 433,-16 439,-22 439,-28 439,-28 439,-40 439,-40 439,-46 433,-52 427,-52"/>
<text text-anchor="middle" x="407.5" y="-31.5" font-family="Helvetica" font-size="10.00" fill="#0f172a">local clone</text>
</g>
<!-- GH&#45;&gt;C2 -->
<g id="edge2" class="edge">
<title>GH&#45;&gt;C2</title>
<path fill="none" stroke="#475569" d="M260.55,-104.37C299.38,-85.65 338.82,-66.63 366.89,-53.1"/>
<polygon fill="#475569" stroke="#475569" points="258.84,-101.31 251.35,-108.8 261.88,-107.61 258.84,-101.31"/>
<polygon fill="#475569" stroke="#475569" points="368.47,-56.22 375.96,-48.73 365.43,-49.92 368.47,-56.22"/>
<text text-anchor="middle" x="313.5" y="-99.8" font-family="Helvetica" font-size="9.00" fill="#334155">git clone / pull</text>
</g>
<!-- CFG1 -->
<g id="node3" class="node">
<title>CFG1</title>
<path fill="#f8fafc" stroke="#475569" d="M705,-307.5C705,-307.5 560,-307.5 560,-307.5 554,-307.5 548,-301.5 548,-295.5 548,-295.5 548,-278.5 548,-278.5 548,-272.5 554,-266.5 560,-266.5 560,-266.5 705,-266.5 705,-266.5 711,-266.5 717,-272.5 717,-278.5 717,-278.5 717,-295.5 717,-295.5 717,-301.5 711,-307.5 705,-307.5"/>
<text text-anchor="middle" x="632.5" y="-295.5" font-family="Helvetica" font-size="10.00" fill="#0f172a">~/.claude</text>
<text text-anchor="middle" x="632.5" y="-284.5" font-family="Helvetica" font-size="10.00" fill="#0f172a">CLAUDE.md · commands · agents</text>
<text text-anchor="middle" x="632.5" y="-273.5" font-family="Helvetica" font-size="10.00" fill="#0f172a">settings.json (merged)</text>
</g>
<!-- C1&#45;&gt;CFG1 -->
<g id="edge3" class="edge">
<title>C1&#45;&gt;CFG1</title>
<path fill="none" stroke="#475569" d="M439.04,-286.14C464.44,-286.25 502.02,-286.42 537.24,-286.58"/>
<polygon fill="#475569" stroke="#475569" points="537.57,-290.08 547.58,-286.62 537.6,-283.08 537.57,-290.08"/>
<text text-anchor="middle" x="493.5" y="-298.8" font-family="Helvetica" font-size="9.00" fill="#334155">claude&#45;sync.sh</text>
<text text-anchor="middle" x="493.5" y="-288.8" font-family="Helvetica" font-size="9.00" fill="#334155">(symlink + merge)</text>
</g>
<!-- TX1 -->
<g id="node4" class="node">
<title>TX1</title>
<path fill="#fde68a" stroke="#d97706" d="M173.5,-304C173.5,-304 77.5,-304 77.5,-304 71.5,-304 65.5,-298 65.5,-292 65.5,-292 65.5,-280 65.5,-280 65.5,-274 71.5,-268 77.5,-268 77.5,-268 173.5,-268 173.5,-268 179.5,-268 185.5,-274 185.5,-280 185.5,-280 185.5,-292 185.5,-292 185.5,-298 179.5,-304 173.5,-304"/>
<text text-anchor="middle" x="125.5" y="-289" font-family="Helvetica" font-size="10.00" fill="#92400e">~/.claude/projects/**</text>
<text text-anchor="middle" x="125.5" y="-278" font-family="Helvetica" font-size="10.00" fill="#92400e">chat + agent transcripts</text>
</g>
<!-- TX1&#45;&gt;C1 -->
<g id="edge5" class="edge">
<title>TX1&#45;&gt;C1</title>
<path fill="none" stroke="#475569" stroke-dasharray="5,2" d="M185.54,-286C239.54,-286 318.02,-286 365.46,-286"/>
<polygon fill="#475569" stroke="#475569" points="365.67,-289.5 375.67,-286 365.67,-282.5 365.67,-289.5"/>
<text text-anchor="middle" x="313.5" y="-298.8" font-family="Helvetica" font-size="9.00" fill="#334155">claude&#45;index&#45;chats.sh</text>
<text text-anchor="middle" x="313.5" y="-288.8" font-family="Helvetica" font-size="9.00" fill="#334155">(metadata only)</text>
</g>
<!-- CFG2 -->
<g id="node6" class="node">
<title>CFG2</title>
<path fill="#f8fafc" stroke="#475569" d="M649,-52C649,-52 616,-52 616,-52 610,-52 604,-46 604,-40 604,-40 604,-28 604,-28 604,-22 610,-16 616,-16 616,-16 649,-16 649,-16 655,-16 661,-22 661,-28 661,-28 661,-40 661,-40 661,-46 655,-52 649,-52"/>
<text text-anchor="middle" x="632.5" y="-31.5" font-family="Helvetica" font-size="10.00" fill="#0f172a">~/.claude</text>
</g>
<!-- C2&#45;&gt;CFG2 -->
<g id="edge4" class="edge">
<title>C2&#45;&gt;CFG2</title>
<path fill="none" stroke="#475569" d="M439.04,-34C479.26,-34 549.98,-34 593.58,-34"/>
<polygon fill="#475569" stroke="#475569" points="593.78,-37.5 603.78,-34 593.78,-30.5 593.78,-37.5"/>
<text text-anchor="middle" x="493.5" y="-36.8" font-family="Helvetica" font-size="9.00" fill="#334155">claude&#45;sync.sh</text>
</g>
<!-- TX2 -->
<g id="node7" class="node">
<title>TX2</title>
<path fill="#fde68a" stroke="#d97706" d="M168.5,-52C168.5,-52 82.5,-52 82.5,-52 76.5,-52 70.5,-46 70.5,-40 70.5,-40 70.5,-28 70.5,-28 70.5,-22 76.5,-16 82.5,-16 82.5,-16 168.5,-16 168.5,-16 174.5,-16 180.5,-22 180.5,-28 180.5,-28 180.5,-40 180.5,-40 180.5,-46 174.5,-52 168.5,-52"/>
<text text-anchor="middle" x="125.5" y="-31.5" font-family="Helvetica" font-size="10.00" fill="#92400e">projects/** transcripts</text>
</g>
<!-- TX2&#45;&gt;C2 -->
<g id="edge6" class="edge">
<title>TX2&#45;&gt;C2</title>
<path fill="none" stroke="#475569" stroke-dasharray="5,2" d="M180.82,-34C234.9,-34 316.69,-34 365.53,-34"/>
<polygon fill="#475569" stroke="#475569" points="365.73,-37.5 375.73,-34 365.73,-30.5 365.73,-37.5"/>
<text text-anchor="middle" x="313.5" y="-36.8" font-family="Helvetica" font-size="9.00" fill="#334155">index</text>
</g>
</g>
</svg>
